# Blender 4.5.1 LTS
# www.blender.org
mtllib chair.mtl
o Cube
v 0.205000 0.397131 -0.175000
v 0.205000 0.447131 0.175000
v -0.205000 0.397131 -0.175000
v -0.205000 0.447131 0.175000
v 0.205000 0.447131 -0.225000
v -0.205000 0.447131 -0.225000
v -0.205000 0.897131 -0.282576
v 0.205000 0.897131 -0.282576
v -0.205000 0.920725 -0.302576
v 0.205000 0.920725 -0.302576
v -0.205000 0.397131 0.225000
v 0.205000 0.397131 0.225000
v -0.205000 -0.002869 0.225000
v 0.205000 -0.002869 0.225000
v -0.205000 -0.002869 0.275000
v 0.205000 -0.002869 0.275000
v 0.225000 0.397131 -0.175000
v 0.225000 0.447131 0.175000
v 0.225000 0.447131 -0.225000
v 0.225000 0.920725 -0.302576
v 0.225000 0.897131 -0.282576
v 0.225000 0.397131 0.225000
v -0.225000 0.397131 -0.175000
v -0.225000 0.447131 0.175000
v -0.225000 0.447131 -0.225000
v -0.225000 0.897131 -0.282576
v -0.225000 0.920725 -0.302576
v -0.225000 0.397131 0.225000
v 0.205000 0.397131 0.135000
v 0.205000 0.357131 0.175000
v 0.205000 0.391772 0.155000
v 0.205000 0.377131 0.169641
v -0.205000 0.357131 0.175000
v -0.205000 0.397131 0.135000
v -0.205000 0.377131 0.169641
v -0.205000 0.391772 0.155000
v -0.205000 0.447131 0.185000
v -0.205000 0.407131 0.225000
v -0.205000 0.441772 0.205000
v -0.205000 0.427131 0.219641
v 0.205000 0.407131 0.225000
v 0.205000 0.447131 0.185000
v 0.205000 0.427131 0.219641
v 0.205000 0.441772 0.205000
v 0.225000 0.357131 0.175000
v 0.225000 0.397131 0.135000
v 0.225000 0.437131 0.175000
v 0.225000 0.397131 0.215000
v 0.225000 0.377131 0.169641
v 0.225000 0.391772 0.155000
v 0.225000 0.447131 0.185000
v 0.225000 0.407131 0.225000
v 0.225000 0.441772 0.205000
v 0.225000 0.427131 0.219641
v -0.225000 0.397131 0.135000
v -0.225000 0.357131 0.175000
v -0.225000 0.397131 0.215000
v -0.225000 0.437131 0.175000
v -0.225000 0.391772 0.155000
v -0.225000 0.377131 0.169641
v -0.225000 0.407131 0.225000
v -0.225000 0.447131 0.185000
v -0.225000 0.427131 0.219641
v -0.225000 0.441772 0.205000
v 0.205000 0.467131 -0.175000
v 0.205000 0.447131 -0.155000
v -0.205000 0.467131 -0.175000
v -0.205000 0.447131 -0.155000
v 0.205000 0.417131 -0.225000
v 0.205000 0.397131 -0.205000
v 0.205000 0.377131 -0.225000
v 0.185000 0.397131 -0.225000
v -0.205000 0.397131 -0.205000
v -0.205000 0.417131 -0.225000
v -0.185000 0.397131 -0.225000
v -0.205000 0.377131 -0.225000
v 0.225000 0.467131 -0.175000
v 0.225000 0.447131 -0.155000
v 0.225000 0.427131 -0.175000
v 0.225000 0.447131 -0.195000
v 0.225000 0.397131 -0.205000
v 0.225000 0.417131 -0.225000
v -0.225000 0.447131 -0.155000
v -0.225000 0.467131 -0.175000
v -0.225000 0.447131 -0.195000
v -0.225000 0.427131 -0.175000
v -0.225000 0.417131 -0.225000
v -0.225000 0.397131 -0.205000
v 0.205000 -0.002869 0.275000
v 0.225000 0.041964 0.269396
v 0.225000 0.041964 0.218773
v 0.205000 -0.002869 0.225000
v -0.205000 -0.002869 0.225000
v -0.225000 0.041964 0.218773
v -0.225000 0.041964 0.269396
v -0.205000 -0.002869 0.275000
v 0.171982 -0.002869 -0.225000
v 0.205000 0.030149 -0.220873
v -0.205000 0.030149 -0.220873
v -0.171982 -0.002869 -0.225000
v 0.205000 0.030149 -0.270656
v 0.171982 -0.002869 -0.275000
v -0.171982 -0.002869 -0.275000
v -0.205000 0.030149 -0.270656
vn 0.2705 -0.9176 0.2914
vn -0.0000 1.0000 -0.0000
vn -0.2705 -0.9176 0.2914
vn -0.0000 -0.0811 -0.9967
vn -0.0000 0.4566 0.8897
vn -0.0000 0.9078 -0.4194
vn -0.0000 0.0621 0.9981
vn -0.0000 -0.1376 -0.9905
vn -0.0000 0.1240 0.9923
vn 0.7071 -0.7071 -0.0000
vn 0.7071 0.7071 -0.0000
vn 0.7258 -0.0558 -0.6856
vn 0.5417 0.7631 -0.3525
vn 0.6594 0.3432 0.6689
vn 0.7214 0.0430 0.6912
vn -0.7071 -0.7071 -0.0000
vn -0.7071 0.7071 -0.0000
vn -0.7258 -0.0558 -0.6856
vn -0.6594 0.3432 0.6689
vn -0.5417 0.7631 -0.3525
vn -0.7214 0.0430 0.6912
vn -0.0000 -0.9914 -0.1305
vn -0.0000 -0.1986 -0.9801
vn -0.0000 -0.8660 -0.5000
vn -0.0000 -0.5000 -0.8660
vn -0.0000 0.9914 0.1305
vn -0.0000 0.1305 0.9914
vn -0.0000 0.8660 0.5000
vn -0.0000 0.5000 0.8660
vn 0.7213 -0.1375 -0.6788
vn 0.7377 -0.6694 -0.0881
vn 1.0000 -0.0000 -0.0000
vn 0.6532 -0.3786 -0.6557
vn 0.6532 -0.6557 -0.3786
vn 0.6789 0.7280 0.0958
vn 0.6789 0.0958 0.7280
vn 0.6532 0.6557 0.3786
vn 0.6532 0.3786 0.6557
vn -0.7377 -0.6694 -0.0881
vn -0.7213 -0.1375 -0.6788
vn -1.0000 -0.0000 -0.0000
vn -0.6532 -0.6557 -0.3786
vn -0.6532 -0.3786 -0.6557
vn -0.6789 0.0958 0.7280
vn -0.6789 0.7280 0.0958
vn -0.6532 0.3786 0.6557
vn -0.6532 0.6557 0.3786
vn -0.0000 0.4928 0.8702
vn -0.0000 0.9239 0.3827
vn 0.1249 -0.1873 -0.9743
vn 0.7056 -0.5457 -0.4521
vn 0.7230 0.0654 -0.6877
vn 0.1877 0.0495 -0.9810
vn -0.7056 -0.5457 -0.4521
vn -0.1249 -0.1873 -0.9743
vn -0.1877 0.0495 -0.9810
vn -0.7230 0.0654 -0.6877
vn 0.7724 0.3130 0.5527
vn 0.8042 0.5491 0.2275
vn 0.6303 -0.7173 -0.2971
vn 0.6303 -0.2971 -0.7173
vn -0.8042 0.5491 0.2275
vn -0.7724 0.3130 0.5527
vn -0.6303 -0.2971 -0.7173
vn -0.6303 -0.7173 -0.2971
vn 0.5637 0.4964 0.6602
vn 0.7384 -0.0862 0.6689
vn 0.7262 -0.2311 -0.6475
vn 0.6756 0.2892 -0.6782
vn -0.6756 0.2892 -0.6782
vn -0.7262 -0.2311 -0.6475
vn -0.7384 -0.0862 0.6689
vn -0.5637 0.4964 0.6602
vn 0.2929 -0.7580 0.5828
vn 0.7129 -0.3485 0.6085
vn -0.7129 -0.3485 0.6085
vn -0.2929 -0.7580 0.5828
vn 0.7226 -0.2438 -0.6469
vn 0.3025 -0.6725 -0.6754
vn -0.3025 -0.6725 -0.6754
vn -0.7226 -0.2438 -0.6469
vt 0.875000 0.500000
vt 0.625000 0.500000
vt 0.625000 0.250000
vt 0.125000 0.750000
vt 0.375000 0.750000
vt 0.375000 1.000000
vt 0.375000 0.750000
vt 0.375000 0.746739
vt 0.375000 0.724492
vt 0.575000 0.750000
vt 0.375000 0.024469
vt 0.375000 0.000000
vt 0.375000 0.000000
vt 0.548077 0.000000
vt 0.125000 0.721429
vt 0.375000 0.721429
vt 0.375000 0.735714
vt 0.125000 0.735714
vt 0.125000 0.750000
vt 0.625000 0.750000
vt 0.875000 0.750000
vt 0.875000 0.750000
vt 0.625000 0.750000
vt 0.625000 1.000000
vt 0.525000 1.000000
vt 0.525000 0.750000
vt 0.425000 1.000000
vt 0.425000 0.750000
vt 0.425000 0.750000
vt 0.525000 0.750000
vt 0.608632 0.750000
vt 0.625000 0.750000
vt 0.875000 0.750000
vt 0.525000 1.000000
vt 0.425000 1.000000
vt 0.125000 0.735714
vt 0.125000 0.500000
vt 0.375000 0.500000
vt 0.625000 0.750000
vt 0.625000 0.000000
vt 0.425000 0.000000
vt 0.525000 0.000000
vt 0.598205 0.000000
vt 0.475000 0.500000
vt 0.375000 0.500000
vt 0.375000 0.487805
vt 0.375000 0.250000
vt 0.472409 0.250000
vt 0.375000 0.262195
vt 0.375000 0.250000
vt 0.625000 0.500000
vt 0.625000 0.513819
vt 0.525000 0.500000
vt 0.625000 0.235714
vt 0.625000 0.250000
vt 0.525000 0.250000
vt 0.625000 0.514286
vt 0.875000 0.514286
vt 0.875000 0.500000
vt 0.875000 0.514286
vt 0.475000 0.250000
vt 0.375000 0.250000
vt 0.354867 0.500000
vt 0.372855 0.482012
vt 0.375000 0.500000
vt 0.145133 0.500000
vt 0.145133 0.500000
vt 0.125000 0.500000
vt 0.375000 0.270133
s 1
usemtl Material
f 7/1/5 8/2/5 10/2/6 9/1/6
f 5/2/4 6/3/4 9/3/6 10/2/6
f 13/4/8 14/5/8 16/5/9 15/4/9
f 12/5/7 11/6/7 15/6/9 16/5/9
f 10/2/6 8/2/5 21/2/14 20/2/13
f 5/2/4 10/2/6 20/2/13 19/2/12
f 7/1/5 9/1/6 27/1/20 26/1/19
f 9/3/6 6/3/4 25/3/18 27/3/20
f 45/5/30 49/7/33 50/8/34 46/9/31 47/10/32 48/5/32
f 55/11/39 59/12/42 60/12/43 56/13/40 57/13/41 58/14/41
f 34/15/22 29/16/22 31/17/24 36/18/24
f 36/18/24 31/17/24 32/5/25 35/4/25
f 35/4/25 32/5/25 30/5/23 33/19/23
f 42/20/26 37/21/26 39/22/28 44/23/28
f 44/23/28 39/24/28 40/25/29 43/26/29
f 43/26/29 40/25/29 38/27/27 41/28/27
f 41/28/27 52/29/36 54/30/38 43/26/29
f 43/26/29 54/30/38 53/31/37 44/23/28
f 44/23/28 53/31/37 51/32/35 42/20/26
f 45/5/30 30/5/23 32/5/25 49/7/33
f 49/7/33 32/5/25 31/17/24 50/8/34
f 50/8/34 31/17/24 29/16/22 46/9/31
f 37/21/26 62/33/45 64/22/47 39/22/28
f 39/24/28 64/24/47 63/34/46 40/25/29
f 40/25/29 63/34/46 61/35/44 38/27/27
f 33/19/23 56/4/40 60/19/43 35/4/25
f 35/4/25 60/19/43 59/36/42 36/18/24
f 36/18/24 59/36/42 55/15/39 34/15/22
f 33/19/23 30/5/23 14/5/8 13/4/8
f 3/37/3 1/38/1 29/16/22 34/15/22
f 29/16/22 1/38/1 17/38/10 46/9/31
f 3/37/3 34/15/22 55/15/39 23/37/16
f 12/5/7 41/28/27 38/27/27 11/6/7
f 2/39/2 4/22/2 37/21/26 42/20/26
f 37/21/26 4/22/2 24/22/17 62/33/45
f 11/6/7 38/27/27 61/35/44 28/6/21
f 41/28/27 12/5/7 22/5/15 52/29/36
f 2/39/2 42/20/26 51/32/35 18/39/11
f 48/5/32 47/10/32 18/39/11 51/32/35 53/31/37 54/30/38 52/29/36 22/5/15
f 24/40/17 58/14/41 57/13/41 28/12/21 61/41/44 63/42/46 64/43/47 62/40/45
f 69/44/50 70/45/51 71/38/52 72/46/53
f 73/47/54 74/48/55 75/49/56 76/50/57
f 77/51/58 78/52/59 79/53/32 80/51/32
f 83/54/62 84/55/63 85/55/41 86/56/41
f 77/51/58 65/2/48 66/57/49 78/52/59
f 68/58/49 66/57/49 65/2/48 67/59/48
f 83/60/62 68/58/49 67/59/48 84/1/63
f 69/44/50 82/44/61 81/45/60 70/45/51
f 87/61/64 74/48/55 73/47/54 88/62/65
f 66/57/49 2/39/2 18/39/11 78/52/59
f 66/57/49 68/58/49 4/22/2 2/39/2
f 67/59/48 65/2/48 8/2/5 7/1/5
f 8/2/5 65/2/48 77/51/58 21/2/14
f 4/22/2 68/58/49 83/60/62 24/22/17
f 67/59/48 7/1/5 26/1/19 84/1/63
f 1/38/1 70/45/51 81/45/60 17/38/10
f 75/49/56 74/48/55 6/3/4 5/2/4 69/44/50 72/46/53
f 69/44/50 5/2/4 19/2/12 82/44/61
f 73/47/54 3/50/3 23/50/16 88/62/65
f 6/3/4 74/48/55 87/61/64 25/3/18
f 80/51/32 79/53/32 17/38/10 81/45/60 82/44/61 19/2/12
f 17/38/10 79/53/32 78/52/59 18/39/11 47/10/32 46/9/31
f 77/51/58 80/51/32 19/2/12 20/2/13 21/2/14
f 55/11/39 58/14/41 24/40/17 83/54/62 86/56/41 23/50/16
f 23/50/16 86/56/41 85/55/41 25/3/18 87/61/64 88/62/65
f 25/3/18 85/55/41 84/55/63 26/3/19 27/3/20
f 89/5/66 92/5/69 91/7/68 90/5/67
f 93/4/70 96/4/73 95/4/72 94/4/71
f 16/5/9 14/5/8 92/5/69 89/5/66
f 45/5/30 48/5/32 22/5/15 90/5/67 91/7/68
f 12/5/7 16/5/9 89/5/66 90/5/67 22/5/15
f 14/5/8 30/5/23 45/5/30 91/7/68 92/5/69
f 28/12/21 57/13/41 56/13/40 94/12/71 95/12/72
f 13/4/8 15/4/9 96/4/73 93/4/70
f 33/19/23 13/4/8 93/4/70 94/4/71 56/4/40
f 15/6/9 11/6/7 28/6/21 95/6/72 96/6/73
f 97/63/74 102/64/79 101/45/78 98/65/75
f 103/66/80 100/67/77 99/68/76 104/37/81
f 1/38/1 3/37/3 99/68/76 100/67/77 97/63/74 98/65/75
f 97/63/74 100/67/77 103/66/80 102/64/79
f 71/38/52 70/45/51 1/38/1 98/65/75 101/45/78
f 3/50/3 73/47/54 76/50/57 104/50/81 99/50/76
f 76/50/57 75/49/56 72/46/53 71/38/52 101/45/78 102/64/79 103/69/80 104/50/81
