# Blender 4.5.1 LTS
# www.blender.org
mtllib model1.mtl
o Cube
v 1.000000 1.000000 -1.000000
v 1.000000 -1.000000 -1.000000
v 1.000000 1.000000 1.000000
v 1.000000 -1.000000 1.000000
v -1.000000 1.000000 -1.000000
v -1.000000 -1.000000 -1.000000
v -1.000000 -1.000000 1.000000
v 1.000000 2.000000 1.000000
v -1.000000 2.184151 0.815849
v 1.000000 2.000000 -1.000000
v -1.000000 2.184151 -0.815849
v -1.965183 1.000000 -1.965183
v 1.000000 1.000000 -2.364974
v 1.000000 3.105351 -1.000000
v -1.000000 2.921200 -0.815849
v -1.000000 2.921200 0.815849
v 1.000000 3.105351 1.000000
v -1.000000 2.000000 1.000000
v -1.000000 2.000000 -1.000000
v -1.000000 3.105351 1.000000
v -1.000000 3.105351 -1.000000
v -1.000000 2.000000 1.000000
v -1.000000 2.000000 -1.000000
v -1.000000 3.105351 1.000000
v -1.000000 3.105351 -1.000000
v -0.645223 2.184151 0.815849
v -0.645223 2.921200 0.815849
v -0.645223 2.921200 -0.815849
v -0.645223 2.184151 -0.815849
v 0.800000 3.363274 -0.800000
v 1.000000 3.163274 -1.000000
v 0.941421 3.304695 -0.941421
v -1.000000 3.163274 -1.000000
v -0.800000 3.363274 -0.800000
v -0.941421 3.304695 -0.941421
v -1.000000 3.163274 1.000000
v -0.800000 3.363274 0.800000
v -0.941421 3.304695 0.941421
v 1.000000 3.163274 1.000000
v 0.800000 3.363274 0.800000
v 0.941421 3.304695 0.941421
v -1.598722 2.000000 -1.598722
v -1.965183 1.587859 -1.965183
v 1.000000 2.000000 -1.949104
v -1.902772 2.000000 1.000000
v -2.364974 1.541942 1.000000
v -1.965183 1.587859 -1.965183
v -1.598722 2.000000 -1.598722
v 1.000000 1.000050 -2.364974
v 0.257168 1.587859 -2.264819
v 1.000000 1.999965 -1.949140
v 0.784576 1.413152 -2.335929
v 0.874983 1.558288 -2.278134
v 0.785121 1.710796 -2.211953
v 1.000000 1.536405 -2.243175
v -1.000000 1.135636 1.000000
v -1.000000 1.000000 0.864364
v -1.000000 0.864364 1.000000
v -0.864364 1.000000 1.000000
v -1.000000 1.039727 0.960273
v -2.346687 1.000000 0.864364
v -2.364974 1.135636 1.000000
v -2.359618 1.039727 0.960273
v 1.000000 0.333333 -1.000000
v 1.000000 -0.333333 -1.000000
v 1.000000 0.333333 1.000000
v 1.000000 -0.333333 1.000000
v -1.000000 0.333333 -1.000000
v -1.000000 -0.333333 -1.000000
v 0.390052 0.333333 -0.390052
v 0.390052 -0.333333 -0.390052
v 0.137403 0.333333 1.000000
v 0.137403 -0.333333 1.000000
v -1.000000 0.333333 -0.137403
v -1.000000 -0.333333 -0.137403
v -0.044052 3.105351 -1.000000
v 0.000000 2.552676 -0.630000
v -0.353204 2.747883 -0.630000
v 0.314038 2.726237 -0.630000
v -1.000000 2.000000 -1.000000
v 1.000000 2.000000 -1.000000
v -0.044052 3.105351 -1.000000
v 1.000000 3.105351 -1.000000
v -1.000000 3.105351 -1.000000
v -1.000000 2.000000 -1.000000
v 1.000000 2.000000 -1.000000
v -0.044052 3.105351 -0.630000
v 1.000000 3.105351 -1.000000
v -1.000000 3.105351 -1.000000
v -0.353204 2.747883 -1.000000
v 0.000000 2.552676 -1.000000
v 0.314038 2.726237 -1.000000
v -0.044052 3.105351 -1.000000
v -0.353204 2.747883 -1.000000
v 0.000000 2.552676 -1.000000
v 0.314038 2.726237 -1.000000
v -0.044052 3.105351 -1.000000
v 0.314038 2.726237 -1.000000
v 0.000000 2.552676 -1.000000
v 1.000000 2.000000 -1.000000
vn 1.0000 -0.0000 -0.0000
vn -0.0000 -1.0000 -0.0000
vn -0.0000 -0.0000 -1.0000
vn -0.0000 -0.0000 1.0000
vn -0.0000 1.0000 -0.0000
vn -1.0000 -0.0000 -0.0000
vn -0.0000 0.9239 -0.3827
vn -0.0000 0.3827 -0.9239
vn -0.3827 0.9239 -0.0000
vn -0.9239 0.3827 -0.0000
vn -0.0000 0.9239 0.3827
vn -0.0000 0.3827 0.9239
vn 0.3827 0.9239 -0.0000
vn 0.9239 0.3827 -0.0000
vn -0.7039 0.7054 -0.0832
vn 0.2834 0.2091 -0.9359
vn -0.0015 0.3845 -0.9231
vn 0.3001 0.5137 -0.8037
vn -0.0945 0.7071 -0.7008
vn -0.1336 -0.0000 -0.9910
vn -0.6213 -0.0000 0.7836
vn -0.0000 -0.3827 0.9239
vn -0.0000 -0.9239 0.3827
vn -0.9910 -0.0000 -0.1336
vn -0.1788 -0.0000 -0.9839
vn 0.9839 -0.0000 0.1788
vn 0.4837 0.8752 -0.0000
vn -0.4837 0.8752 -0.0000
vn -0.7270 -0.6867 -0.0000
vn 0.7564 -0.6541 -0.0000
vt 0.625000 0.750000
vt 0.625000 0.500000
vt 0.125000 0.500000
vt 0.375000 0.500000
vt 0.375000 0.750000
vt 0.125000 0.750000
vt 0.541667 0.500000
vt 0.541667 0.750000
vt 0.541667 0.250000
vt 0.625000 0.250000
vt 0.875000 0.500000
vt 0.794150 0.500000
vt 0.875000 0.750000
vt 0.000000 0.000000
vt 0.875000 0.726981
vt 0.875000 0.523019
vt 0.875000 0.523019
vt 0.850000 0.525000
vt 0.650000 0.525000
vt 0.628661 0.503661
vt 0.871339 0.503661
vt 0.625000 0.500000
vt 0.875000 0.500000
vt 0.850000 0.725000
vt 0.871339 0.746339
vt 0.875000 0.750000
vt 0.650000 0.725000
vt 0.628661 0.746339
vt 0.625000 0.750000
vt 0.755506 0.500000
vt 0.625000 0.498400
vt 0.625000 0.250000
vt 0.625000 0.000000
vt 0.625000 0.005160
vt 0.625000 0.215563
vt 0.625000 0.272616
vt 0.625000 0.500000
vt 0.625000 0.481837
vt 0.625000 0.495358
vt 0.625000 0.499829
vt 0.625000 0.437371
vt 0.625000 0.481227
vt 0.625000 0.498400
vt 0.625000 0.000000
vt 0.625000 0.000711
vt 0.625000 0.016954
vt 0.608045 0.000000
vt 0.625000 1.000000
vt 0.625000 1.000000
vt 0.625000 0.003092
vt 0.625000 0.011436
vt 0.375000 0.000000
vt 0.458333 0.250000
vt 0.375000 0.250000
vt 0.458333 0.750000
vt 0.625000 0.983046
vt 0.608046 1.000000
vt 0.375000 1.000000
vt 0.458333 0.500000
vt 0.710745 0.500000
vt 0.750000 0.500000
s 0
usemtl Material
f 3/1/1 1/2/1 81/2/1 8/1/1
f 6/3/2 2/4/2 4/5/2 7/6/2
f 64/7/1 1/2/1 3/1/1 66/8/1
f 68/9/3 5/10/3 1/2/3 64/7/3
f 1/2/2 5/10/2 12/10/2 13/2/2
f 85/11/3 89/11/3 90/12/3
f 8/1/4 17/1/4 20/13/4 18/13/4
f 81/2/1 83/2/1 17/1/1 8/1/1
f 22/13/5 23/11/5 80/11/5 18/13/5
f 25/11/5 24/13/5 20/13/5 84/11/5
f 23/14/5 25/14/5 84/14/5 80/14/5
f 24/14/5 22/14/5 18/14/5 20/14/5
f 9/15/6 11/16/6 23/11/6 22/13/6
f 15/17/6 16/15/6 24/13/6 25/11/6
f 11/16/6 15/17/6 25/11/6 23/11/6
f 16/15/6 9/15/6 22/13/6 24/13/6
f 26/15/6 27/15/6 28/17/6 29/16/6
f 16/15/3 27/15/3 26/15/3 9/15/3
f 15/17/2 28/17/2 27/15/2 16/15/2
f 11/16/4 29/16/4 28/17/4 15/17/4
f 9/15/5 26/15/5 29/16/5 11/16/5
f 34/18/7 30/19/7 32/20/7 35/21/7
f 35/21/8 32/20/8 31/22/8 33/23/8
f 37/24/9 34/18/9 35/21/9 38/25/9
f 38/25/10 35/21/10 33/23/10 36/26/10
f 40/27/11 37/24/11 38/25/11 41/28/11
f 41/28/12 38/25/12 36/26/12 39/29/12
f 30/19/13 40/27/13 41/28/13 32/20/13
f 32/20/14 41/28/14 39/29/14 31/22/14
f 84/11/3 33/23/3 31/22/3 83/2/3 82/30/3
f 30/19/5 34/18/5 37/24/5 40/27/5
f 83/2/1 31/22/1 39/29/1 17/1/1
f 20/13/6 36/26/6 33/23/6 84/11/6
f 17/1/4 39/29/4 36/26/4 20/13/4
f 80/11/5 81/2/5 44/31/5 42/11/5
f 47/32/15 46/33/15 45/34/15 48/35/15
f 18/13/5 80/11/5 42/11/5 48/11/5 45/13/5
f 42/36/5 43/32/5 47/32/5 48/35/5
f 49/37/16 52/38/16 53/39/16 55/40/16
f 50/41/17 54/42/17 53/39/17 52/38/17
f 51/43/18 55/40/18 53/39/18 54/42/18
f 81/2/1 1/2/1 13/2/1 49/37/1 55/40/1 51/43/1 44/31/1
f 42/36/19 44/31/19 51/43/19 54/42/19 50/41/19 43/32/19
f 13/2/20 12/10/20 43/32/20 50/41/20 52/38/20 49/37/20
f 56/44/21 60/45/21 57/46/21 58/47/21 59/44/21
f 56/48/22 62/48/22 63/49/22 60/48/22
f 60/45/23 63/50/23 61/51/23 57/46/23
f 7/52/6 58/47/6 57/46/6 5/10/6 68/9/6 69/53/6 6/54/6
f 5/10/2 57/46/2 61/51/2 12/10/2
f 56/48/4 18/48/4 45/48/4 46/48/4 62/48/4
f 4/5/4 67/55/4 66/8/4 3/1/4 59/56/4 58/57/4 7/58/4
f 56/48/4 59/56/4 3/1/4 8/1/4 18/48/4
f 12/10/24 61/51/24 63/50/24 62/44/24 46/33/24 47/32/24 43/32/24
f 6/54/3 69/53/3 65/59/3 2/4/3
f 65/59/5 69/53/5 75/53/5 71/59/5
f 2/4/1 65/59/1 67/55/1 4/5/1
f 67/55/5 65/59/5 71/59/5 73/55/5
f 75/53/25 74/9/25 70/7/25 71/59/25
f 71/59/26 70/7/26 72/8/26 73/55/26
f 64/7/2 66/8/2 72/8/2 70/7/2
f 68/9/2 64/7/2 70/7/2 74/9/2
f 69/53/1 68/9/1 74/9/1 75/53/1
f 66/8/3 67/55/3 73/55/3 72/8/3
f 90/12/3 89/11/3 93/30/3
f 93/30/3 88/2/3 98/60/3
f 98/60/3 88/2/3 100/2/3
f 100/2/3 85/11/3 99/61/3
f 99/61/3 85/11/3 90/12/3
f 77/61/3 78/12/3 87/30/3 79/60/3
f 91/61/3 92/60/3 86/2/3
f 19/11/5 10/2/5 81/2/5 80/11/5
f 14/2/5 76/30/5 82/30/5 83/2/5
f 21/14/5 19/14/5 80/14/5 84/14/5
f 10/14/5 14/14/5 83/14/5 81/14/5
f 76/30/5 21/11/5 84/11/5 82/30/5
f 85/11/5 100/2/5 10/2/5 19/11/5
f 88/2/5 93/30/5 76/30/5 14/2/5
f 89/11/5 85/11/5 19/11/5 21/11/5
f 100/14/5 88/14/5 14/14/5 10/14/5
f 93/30/5 89/11/5 21/11/5 76/30/5
f 94/12/5 95/61/5 99/61/5 90/12/5
f 95/61/5 96/60/5 98/60/5 99/61/5
f 96/60/5 97/30/5 93/30/5 98/60/5
f 97/30/5 94/12/5 90/12/5 93/30/5
f 78/12/27 77/61/27 95/61/27 94/12/27
f 77/61/28 79/60/28 96/60/28 95/61/28
f 79/60/29 87/30/29 97/30/29 96/60/29
f 87/30/30 78/12/30 94/12/30 97/30/30
f 92/60/5 91/61/5 99/61/5 98/60/5
f 91/61/5 86/2/5 100/2/5 99/61/5
f 86/2/5 92/60/5 98/60/5 100/2/5
